# xmcd
#
# Track frame offsets:
#	150
#	18743
#	40753
#	59505
#	81733
#	104660
#	124825
#	147462
#	165754
#	189543
#	211684
#	234848
#	254029
#
# Disc length: 3615 seconds
#
# Revision: 1
# Processed by: cddbd v1.5.1PL0 Copyright (c) Steve Scherf et al.
# Submitted via: audiograbber 1.83.01
#
DISCID=bb0e1d0d
DTITLE=Boyz II Men - Full Circle
DYEAR=1900
DGENRE=
TTITLE0=Relax your Mind
TTITLE1=The Color of Love
TTITLE2=Aínt a Thang Wrong
TTITLE3=Oh Well
TTITLE4=Watcha Need
TTITLE5=On the Road Again
TTITLE6=Makin Love
TTITLE7=Roll Wit Me
TTITLE8=Right On Time
TTITLE9=Howz About It
TTITLE10=That´s Why I Love You
TTITLE11=I´M Ok,Your Ok
TTITLE12=Luv N U
EXTD=
EXTT0=
EXTT1=
EXTT2=
EXTT3=
EXTT4=
EXTT5=
EXTT6=
EXTT7=
EXTT8=
EXTT9=
EXTT10=
EXTT11=
EXTT12=
PLAYORDER=
